<svg width="50" height="47" viewBox="0 0 50 47" fill="none" xmlns="http://www.w3.org/2000/svg">
<rect width="50" height="47" fill="#BDCDCA"/>
<g clip-path="url(#clip0)">
<rect width="1440" height="6597" transform="translate(-147 -2159)" fill="url(#paint0_linear)"/>
<g clip-path="url(#clip1)">
<path d="M22.9216 2.87305H10.49C9.73612 2.87305 9.12274 3.48643 9.12274 4.24033V19.7665C9.12274 20.5204 9.73612 21.1338 10.49 21.1338H22.9216C23.6755 21.1338 24.2889 20.5204 24.2889 19.7665V4.24033C24.2889 3.48643 23.6755 2.87305 22.9216 2.87305ZM22.8657 19.7105H10.5459V4.29619H22.8657V19.7105Z" fill="#3D626F"/>
<path d="M22.9216 22.7461H10.49C9.73612 22.7461 9.12274 23.3595 9.12274 24.1134V39.6395C9.12274 40.3935 9.73612 41.0067 10.49 41.0067H22.9216C23.6755 41.0067 24.2889 40.3934 24.2889 39.6395V24.1134C24.2889 23.3595 23.6755 22.7461 22.9216 22.7461ZM22.8657 39.5837H10.5459V24.1693H22.8657V39.5837Z" fill="#3D626F"/>
<path d="M39.51 2.87305H27.0786C26.3246 2.87305 25.7112 3.48643 25.7112 4.24033V19.7665C25.7112 20.5204 26.3246 21.1338 27.0786 21.1338H39.51C40.264 21.1338 40.8774 20.5204 40.8774 19.7665V4.24033C40.8773 3.48643 40.264 2.87305 39.51 2.87305ZM39.4542 19.7105H27.1343V4.29619H39.4542V19.7105Z" fill="#3D626F"/>
<path d="M39.51 22.7461H27.0786C26.3246 22.7461 25.7112 23.3595 25.7112 24.1134V39.6395C25.7112 40.3935 26.3246 41.0067 27.0786 41.0067H39.51C40.264 41.0067 40.8774 40.3934 40.8774 39.6395V24.1134C40.8773 23.3595 40.264 22.7461 39.51 22.7461ZM39.4542 39.5837H27.1343V24.1693H39.4542V39.5837Z" fill="#3D626F"/>
<path d="M48.1955 41.8827H46.7505V7.75083C46.7505 7.35786 46.4319 7.03921 46.0388 7.03921C45.6458 7.03921 45.3272 7.35776 45.3272 7.75083V41.8827H43.629V1.65542C43.629 0.809522 42.9408 0.121338 42.0949 0.121338H7.90496C7.05906 0.121338 6.37087 0.809522 6.37087 1.65542V41.8827H4.67263V34.8668C4.67263 34.4739 4.35408 34.1552 3.96101 34.1552C3.56794 34.1552 3.24939 34.4738 3.24939 34.8668V41.8827H1.80447C1.01804 41.8827 0.378296 42.5225 0.378296 43.3088V45.5739C0.378296 46.3603 1.01814 47 1.80447 47H48.1955C48.9819 47 49.6217 46.3602 49.6217 45.5739V43.3088C49.6217 42.5224 48.9819 41.8827 48.1955 41.8827ZM7.79402 1.65542C7.79402 1.59429 7.84373 1.54448 7.90496 1.54448H42.095C42.1561 1.54448 42.2059 1.59419 42.2059 1.65542V41.8827H7.79402V1.65542ZM48.1969 45.5768L48.1955 45.5769L1.80144 45.5739L1.80447 43.3058L48.1985 43.3088L48.1969 45.5768Z" fill="#D7D7D7"/>
<path d="M45.4077 -3H4.59213C3.85179 -3 3.24945 -2.39775 3.24945 -1.65732V31.4888C3.24945 31.8816 3.56801 32.2003 3.96107 32.2003C4.35404 32.2003 4.67269 31.8817 4.67269 31.4887V-1.57686H45.3274V4.36475C45.3274 4.75771 45.6459 5.07637 46.039 5.07637C46.4321 5.07637 46.7506 4.75781 46.7506 4.36475V-1.65732C46.7504 -2.39775 46.1481 -3 45.4077 -3Z" fill="#3D626F"/>
</g>
</g>
<defs>
<linearGradient id="paint0_linear" x1="0" y1="0" x2="996.308" y2="5075.26" gradientUnits="userSpaceOnUse">
<stop stop-color="white"/>
<stop offset="1" stop-color="#E6F6FB"/>
</linearGradient>
<clipPath id="clip0">
<rect width="1440" height="6597" fill="white" transform="translate(-147 -2159)"/>
</clipPath>
<clipPath id="clip1">
<rect width="50" height="50" fill="white" transform="translate(0 -3)"/>
</clipPath>
</defs>
</svg>
