<svg width="44" height="46" viewBox="0 0 44 46" fill="none" xmlns="http://www.w3.org/2000/svg">
<rect width="44" height="46" fill="#BDCDCA"/>
<g clip-path="url(#clip0)">
<rect width="1440" height="6597" transform="translate(-150 -2324)" fill="url(#paint0_linear)"/>
<path d="M39.1875 0.785156V2.25H41.5801V10.7774C40.6181 10.4673 39.9199 9.56387 39.9199 8.5H38.4551C38.4551 9.81924 37.3817 10.8926 36.0625 10.8926V12.3574C37.3817 12.3574 38.4551 13.4308 38.4551 14.75H39.9199C39.9199 13.6861 40.6181 12.7827 41.5801 12.4726V44.5352H2.41992V2.25H32.9375V0.785156H0.955078V46H43.0449V0.785156H39.1875ZM39.1875 12.4926C38.9462 12.1594 38.6531 11.8663 38.3199 11.625C38.6531 11.3837 38.9462 11.0906 39.1875 10.7574C39.4288 11.0906 39.7219 11.3837 40.0551 11.625C39.7219 11.8663 39.4288 12.1594 39.1875 12.4926Z" fill="#3D626F"/>
<path d="M4.08008 3.91016V21H5.54492V5.375H19.7051V41.4102H5.54492V27.25H4.08008V42.875H21.1699V3.91016H4.08008Z" fill="#3D626F"/>
<path d="M22.8301 3.91016V39.0176H24.2949V5.375H39.1875V3.91016H22.8301Z" fill="#3D626F"/>
<path d="M38.4551 17.875V41.4102H23.5625V42.875H39.9199V17.875H38.4551Z" fill="#3D626F"/>
<path d="M10.5444 7.24949L7.41907 10.3748L8.45486 11.4106L11.5802 8.28528L10.5444 7.24949Z" fill="#3D626F"/>
<path d="M13.6695 7.24999L7.41956 13.4999L8.45535 14.5357L14.7052 8.28578L13.6695 7.24999Z" fill="#3D626F"/>
<path d="M29.2941 7.24937L26.1688 10.3747L27.2046 11.4105L30.3299 8.28516L29.2941 7.24937Z" fill="#3D626F"/>
<path d="M32.4191 7.24999L26.1692 13.4999L27.205 14.5357L33.4549 8.28578L32.4191 7.24999Z" fill="#3D626F"/>
<path d="M8.66992 21H7.20508C7.20508 22.3192 6.13174 23.3926 4.8125 23.3926V24.8574C6.13174 24.8574 7.20508 25.9308 7.20508 27.25H8.66992C8.66992 25.9308 9.74326 24.8574 11.0625 24.8574V23.3926C9.74326 23.3926 8.66992 22.3192 8.66992 21ZM7.9375 24.9926C7.69619 24.6594 7.40312 24.3663 7.06992 24.125C7.40312 23.8837 7.69619 23.5906 7.9375 23.2574C8.17881 23.5906 8.47188 23.8837 8.80508 24.125C8.47188 24.3663 8.17881 24.6594 7.9375 24.9926Z" fill="#3D626F"/>
<path d="M36.7949 -4H35.3301C35.3301 -2.68076 34.2567 -1.60742 32.9375 -1.60742V-0.142578C34.2567 -0.142578 35.3301 0.930762 35.3301 2.25H36.7949C36.7949 0.930762 37.8683 -0.142578 39.1875 -0.142578V-1.60742C37.8683 -1.60742 36.7949 -2.68076 36.7949 -4ZM36.0625 -0.00742197C35.8212 -0.340625 35.5281 -0.633691 35.1949 -0.875C35.5281 -1.11631 35.8212 -1.40938 36.0625 -1.74258C36.3038 -1.40938 36.5969 -1.11631 36.9301 -0.875C36.5969 -0.633691 36.3038 -0.340625 36.0625 -0.00742197Z" fill="#3D626F"/>
<path d="M36.0625 22.6602H34.5V24.125H36.0625V22.6602Z" fill="#3D626F"/>
<path d="M32.1562 22.6602H30.5938V24.125H32.1562V22.6602Z" fill="#3D626F"/>
<path d="M28.25 22.6602H26.6875V24.125H28.25V22.6602Z" fill="#3D626F"/>
</g>
<defs>
<linearGradient id="paint0_linear" x1="0" y1="0" x2="996.308" y2="5075.26" gradientUnits="userSpaceOnUse">
<stop stop-color="white"/>
<stop offset="1" stop-color="#E6F6FB"/>
</linearGradient>
<clipPath id="clip0">
<rect width="1440" height="6597" fill="white" transform="translate(-150 -2324)"/>
</clipPath>
</defs>
</svg>
