<svg width="50" height="47" viewBox="0 0 50 47" fill="none" xmlns="http://www.w3.org/2000/svg">
<rect width="50" height="47" fill="#BDCDCA"/>
<g clip-path="url(#clip0)">
<rect width="1440" height="6597" transform="translate(-148 -2473)" fill="url(#paint0_linear)"/>
<g clip-path="url(#clip1)">
<path d="M22.9216 2.87311H10.49C9.73612 2.87311 9.12274 3.48649 9.12274 4.24039V19.7666C9.12274 20.5205 9.73612 21.1338 10.49 21.1338H22.9216C23.6755 21.1338 24.2889 20.5205 24.2889 19.7666V4.24039C24.2889 3.48649 23.6755 2.87311 22.9216 2.87311ZM22.8657 19.7106H10.5459V4.29625H22.8657V19.7106Z" fill="#3D626F"/>
<path d="M22.9216 22.746H10.49C9.73612 22.746 9.12274 23.3594 9.12274 24.1133V39.6394C9.12274 40.3934 9.73612 41.0067 10.49 41.0067H22.9216C23.6755 41.0067 24.2889 40.3933 24.2889 39.6394V24.1133C24.2889 23.3594 23.6755 22.746 22.9216 22.746ZM22.8657 39.5836H10.5459V24.1693H22.8657V39.5836Z" fill="#3D626F"/>
<path d="M39.51 2.87311H27.0786C26.3246 2.87311 25.7112 3.48649 25.7112 4.24039V19.7666C25.7112 20.5205 26.3246 21.1338 27.0786 21.1338H39.51C40.264 21.1338 40.8774 20.5205 40.8774 19.7666V4.24039C40.8773 3.48649 40.264 2.87311 39.51 2.87311ZM39.4542 19.7106H27.1343V4.29625H39.4542V19.7106Z" fill="#3D626F"/>
<path d="M39.51 22.746H27.0786C26.3246 22.746 25.7112 23.3594 25.7112 24.1133V39.6394C25.7112 40.3934 26.3246 41.0067 27.0786 41.0067H39.51C40.264 41.0067 40.8774 40.3933 40.8774 39.6394V24.1133C40.8773 23.3594 40.264 22.746 39.51 22.746ZM39.4542 39.5836H27.1343V24.1693H39.4542V39.5836Z" fill="#3D626F"/>
<path d="M48.1955 41.8827H46.7505V7.75083C46.7505 7.35786 46.4319 7.03921 46.0389 7.03921C45.6458 7.03921 45.3272 7.35776 45.3272 7.75083V41.8827H43.629V1.65542C43.629 0.809522 42.9408 0.121338 42.0949 0.121338H7.90496C7.05906 0.121338 6.37088 0.809522 6.37088 1.65542V41.8827H4.67263V34.8668C4.67263 34.4739 4.35408 34.1552 3.96101 34.1552C3.56795 34.1552 3.24939 34.4738 3.24939 34.8668V41.8827H1.80447C1.01804 41.8827 0.378296 42.5225 0.378296 43.3088V45.5739C0.378296 46.3603 1.01814 47 1.80447 47H48.1955C48.9819 47 49.6217 46.3602 49.6217 45.5739V43.3088C49.6217 42.5224 48.9819 41.8827 48.1955 41.8827ZM7.79402 1.65542C7.79402 1.59429 7.84373 1.54448 7.90496 1.54448H42.095C42.1561 1.54448 42.2059 1.59419 42.2059 1.65542V41.8827H7.79402V1.65542ZM48.1969 45.5768L48.1955 45.5769L1.80144 45.5739L1.80447 43.3058L48.1985 43.3088L48.1969 45.5768Z" fill="#3D626F"/>
<path d="M45.4078 -3H4.59219C3.85186 -3 3.24951 -2.39775 3.24951 -1.65732V31.4888C3.24951 31.8816 3.56807 32.2003 3.96113 32.2003C4.3541 32.2003 4.67275 31.8817 4.67275 31.4887V-1.57686H45.3274V4.36475C45.3274 4.75771 45.646 5.07637 46.0391 5.07637C46.4321 5.07637 46.7507 4.75781 46.7507 4.36475V-1.65732C46.7505 -2.39775 46.1481 -3 45.4078 -3Z" fill="#3D626F"/>
</g>
</g>
<defs>
<linearGradient id="paint0_linear" x1="0" y1="0" x2="996.308" y2="5075.26" gradientUnits="userSpaceOnUse">
<stop stop-color="white"/>
<stop offset="1" stop-color="#E6F6FB"/>
</linearGradient>
<clipPath id="clip0">
<rect width="1440" height="6597" fill="white" transform="translate(-148 -2473)"/>
</clipPath>
<clipPath id="clip1">
<rect width="50" height="50" fill="white" transform="translate(0 -3)"/>
</clipPath>
</defs>
</svg>
