<svg width="35" height="33" viewBox="0 0 35 33" fill="none" xmlns="http://www.w3.org/2000/svg">
<path d="M33.291 29.4071H32.8571V20.9407C32.8571 20.6575 32.6277 20.428 32.3444 20.428C32.0612 20.428 31.8317 20.6575 31.8317 20.9407V29.4071H20.9555V15.47H31.4128C31.6438 15.47 31.8318 15.658 31.8318 15.889V18.5253C31.8318 18.8084 32.0613 19.038 32.3445 19.038C32.6277 19.038 32.8572 18.8084 32.8572 18.5253V15.889C32.8572 15.0925 32.2092 14.4446 31.4128 14.4446H20.9555V5.12766C20.9555 4.38165 20.3751 3.75159 19.6326 3.68876V2.6603C19.6326 1.91135 19.0477 1.27882 18.301 1.22031L5.02291 0.179603C4.18448 0.113362 3.46568 0.778294 3.46568 1.61959V2.44066C2.70532 2.5056 2.14286 3.14161 2.14286 3.87962V29.407H1.70898C0.76665 29.407 0 30.1736 0 31.116C0 32.0583 0.76665 32.825 1.70898 32.825H33.291C34.2333 32.825 35 32.0583 35 31.116C35 30.1736 34.2333 29.4071 33.291 29.4071ZM4.49107 1.61966C4.49107 1.37411 4.70005 1.18271 4.94286 1.20192L18.221 2.24255C18.4375 2.25957 18.6072 2.44305 18.6072 2.6603V3.60796L4.49101 2.50163V1.61966H4.49107ZM3.16825 3.87969C3.16825 3.63216 3.37996 3.44226 3.61997 3.46195L19.5437 4.70992C19.7604 4.72694 19.93 4.91041 19.93 5.12766V29.4071H18.4974V22.0666C18.4974 21.6 18.1178 21.2204 17.6512 21.2204H12.8879C12.4213 21.2204 12.0417 21.6 12.0417 22.0666V25.3925C12.0417 25.6757 12.2713 25.9052 12.5544 25.9052C12.8375 25.9052 13.0671 25.6757 13.0671 25.3925V22.2458H17.472V29.4071H13.0671V27.7894C13.0671 27.5063 12.8375 27.2767 12.5544 27.2767C12.2713 27.2767 12.0417 27.5063 12.0417 27.7894V29.4071H3.16825V3.87969ZM33.291 31.7996H1.70898C1.33205 31.7996 1.02539 31.493 1.02539 31.1161C1.02539 30.7391 1.33205 30.4325 1.70898 30.4325H33.291C33.6679 30.4325 33.9746 30.7391 33.9746 31.1161C33.9746 31.493 33.6679 31.7996 33.291 31.7996Z" fill="#3D626F"/>
</svg>
