<svg width="108" height="108" viewBox="0 0 108 108" fill="none" xmlns="http://www.w3.org/2000/svg">
<rect width="108" height="108" fill="#BDCDCA"/>
<g clip-path="url(#clip0)">
<rect width="1440" height="6597" transform="translate(-720 -3058)" fill="url(#paint0_linear)"/>
<g filter="url(#filter0_d)">
<circle cx="49" cy="49" r="34" fill="#83AEAD"/>
</g>
<g clip-path="url(#clip1)">
<path d="M64.08 37.9024L58.4111 35.5407C57.7893 35.2817 57.0761 35.2817 56.4543 35.5407L53.7325 36.6744C53.4892 36.7758 53.3741 37.0551 53.4755 37.2984C53.5768 37.5417 53.8561 37.6569 54.0995 37.5555L56.8213 36.4217C57.2097 36.2599 57.6555 36.2598 58.0442 36.4216L63.7128 38.7833C64.2642 39.0133 64.6205 39.5304 64.6205 40.1007V60.5077C64.6205 61.3013 63.9389 61.9468 63.1012 61.9468H62.3276C62.064 61.9468 61.8504 62.1604 61.8504 62.424C61.8504 62.6876 62.064 62.9012 62.3276 62.9012H63.1012C64.4651 62.9012 65.5749 61.8275 65.5749 60.5077V40.1007C65.5749 39.1441 64.9881 38.2812 64.08 37.9024Z" fill="white"/>
<path d="M60.2477 61.9469H52.23C52.5601 61.5716 52.7409 61.0955 52.7409 60.5917C52.7409 60.0889 52.5589 59.6281 52.2577 59.2708C52.4476 59.1739 52.6235 59.0471 52.7787 58.8919C53.1663 58.5042 53.3797 57.9888 53.3797 57.4405C53.3797 56.9177 53.183 56.4403 52.8601 56.0775C53.02 55.987 53.1688 55.8748 53.3022 55.7413C53.6898 55.3538 53.9032 54.8384 53.9032 54.2899C53.9032 53.7687 53.7077 53.2925 53.3867 52.93C53.5492 52.8388 53.7006 52.7251 53.8364 52.5897C54.2238 52.2015 54.437 51.6862 54.437 51.1386C54.437 50.0065 53.5163 49.0855 52.3845 49.0855H50.2449V40.1007C50.2449 39.5304 50.6012 39.0132 51.1523 38.7833L52.0202 38.4219C52.2635 38.3206 52.3786 38.0413 52.2773 37.798C52.1759 37.5547 51.8966 37.4394 51.6533 37.5409L50.7851 37.9024C49.8772 38.2811 49.2905 39.144 49.2905 40.1007V49.0855H47.2968C47.9607 46.9875 47.9042 44.7979 47.1294 42.2567C47.0117 41.8718 46.7775 41.5422 46.4521 41.3034C46.1286 41.0661 45.7452 40.9406 45.3433 40.9406C44.8255 40.9406 44.3441 41.1473 43.9876 41.5228C43.6312 41.8981 43.4498 42.3896 43.4766 42.9064C43.6258 45.7756 42.3023 46.7632 40.4706 48.1301C39.8675 48.5801 39.2083 49.0723 38.5605 49.6759V49.0505C38.5605 48.7869 38.347 48.5733 38.0834 48.5733H33.4772C33.2136 48.5733 33 48.7869 33 49.0505V62.5837C33 62.8473 33.2136 63.0608 33.4772 63.0608H38.0835C38.3471 63.0608 38.5607 62.8473 38.5607 62.5837V61.3832C39.467 61.4694 40.1289 61.6501 40.772 62.143C41.1942 62.4665 41.7146 62.6448 42.2374 62.6448H50.6529C50.9967 62.8123 51.3778 62.9011 51.7642 62.9011H60.2477C60.5113 62.9011 60.7249 62.6876 60.7249 62.424C60.7249 62.1604 60.5113 61.9469 60.2477 61.9469ZM41.3526 61.3855C40.4528 60.696 39.4912 60.5044 38.5607 60.4241V54.8523C38.5607 54.5887 38.3471 54.3751 38.0835 54.3751C37.8199 54.3751 37.6063 54.5887 37.6063 54.8523V62.1066H33.9544V49.5277H37.6063V52.7732C37.6063 53.0368 37.8199 53.2503 38.0835 53.2503C38.3471 53.2503 38.5607 53.0368 38.5607 52.7732V51.0315C39.3589 50.1506 40.2136 49.5128 41.0414 48.895C42.8743 47.5274 44.6055 46.2354 44.4299 42.8569C44.4167 42.604 44.5054 42.3636 44.6799 42.1799C44.8544 41.9961 45.09 41.895 45.3435 41.895C45.5409 41.895 45.729 41.9565 45.8876 42.0729C46.046 42.1891 46.1598 42.3492 46.2168 42.5355C47.0059 45.124 46.9936 47.3018 46.178 49.3892C46.1206 49.536 46.1395 49.7017 46.2283 49.832C46.3172 49.9622 46.4647 50.0401 46.6224 50.0401H52.3846C52.9902 50.0401 53.4828 50.533 53.4828 51.1388C53.4828 51.4318 53.3685 51.7077 53.1616 51.9151C52.9536 52.1226 52.6777 52.237 52.3846 52.237H50.4244C50.1608 52.237 49.9472 52.4505 49.9472 52.7141C49.9472 52.9777 50.1608 53.1913 50.4244 53.1913H51.8508C52.4563 53.1913 52.9489 53.6842 52.9489 54.2901C52.9489 54.5836 52.8348 54.8594 52.6274 55.0668C52.4201 55.2741 52.1443 55.3883 51.8508 55.3883H50.4244C50.1608 55.3883 49.9472 55.6018 49.9472 55.8654C49.9472 56.129 50.1608 56.3426 50.4244 56.3426H51.3271C51.9327 56.3426 52.4253 56.8352 52.4253 57.4407C52.4253 57.7342 52.3111 58.01 52.1038 58.2174C51.8961 58.4252 51.6202 58.5395 51.3271 58.5395H50.6884H49.9007C49.6371 58.5395 49.4235 58.7531 49.4235 59.0167C49.4235 59.2803 49.6371 59.4938 49.9007 59.4938H50.6884C51.2939 59.4938 51.7866 59.9865 51.7866 60.592C51.7866 60.8854 51.6722 61.1615 51.4655 61.3688C51.2717 61.5621 50.9655 61.6855 50.7364 61.6896C50.7206 61.6898 42.2374 61.6907 42.2374 61.6907C41.9234 61.6904 41.6091 61.5821 41.3526 61.3855Z" fill="white"/>
<path d="M59.1548 40.3127C59.1548 39.31 58.3391 38.4943 57.3364 38.4943C56.3337 38.4943 55.5179 39.31 55.5179 40.3127C55.5179 41.3154 56.3337 42.1312 57.3364 42.1312C58.3391 42.1312 59.1548 41.3154 59.1548 40.3127ZM56.4722 40.3127C56.4722 39.8363 56.8599 39.4486 57.3364 39.4486C57.8128 39.4486 58.2005 39.8363 58.2005 40.3127C58.2005 40.7892 57.8128 41.1769 57.3364 41.1769C56.8599 41.1769 56.4722 40.7893 56.4722 40.3127Z" fill="white"/>
<path d="M57.6345 56.5945H56.7787C56.3279 56.5945 55.9612 56.2277 55.9612 55.7769C55.9612 55.5133 55.7476 55.2997 55.484 55.2997C55.2204 55.2997 55.0069 55.5133 55.0069 55.7769C55.0069 56.7374 55.7752 57.5212 56.7294 57.5475V58.6035C56.7294 58.8671 56.943 59.0807 57.2066 59.0807C57.4701 59.0807 57.6837 58.8671 57.6837 58.6035V57.5475C58.638 57.5212 59.4063 56.7374 59.4063 55.7769V55.1163C59.4063 54.5034 59.0147 53.9645 58.4318 53.775L56.2763 53.0748C56.0878 53.0136 55.9612 52.8394 55.9612 52.6413V51.6954C55.9612 51.3293 56.259 51.0314 56.6251 51.0314H57.7881C58.1542 51.0314 58.452 51.3293 58.452 51.6954C58.452 51.959 58.6656 52.1726 58.9292 52.1726C59.1928 52.1726 59.4064 51.959 59.4064 51.6954C59.4064 50.8031 58.6804 50.0771 57.7881 50.0771H57.6837V49.0223C57.6837 48.7587 57.4701 48.5452 57.2066 48.5452C56.943 48.5452 56.7294 48.7587 56.7294 49.0223V50.0771H56.625C55.7328 50.0771 55.0068 50.803 55.0068 51.6954V52.6413C55.0068 53.2541 55.3984 53.7931 55.9813 53.9825L58.1368 54.6827C58.3253 54.7439 58.4519 54.9182 58.4519 55.1163V55.7769C58.452 56.2277 58.0852 56.5945 57.6345 56.5945Z" fill="white"/>
</g>
<path d="M49 98V207" stroke="#83AEAD" stroke-linecap="round"/>
</g>
<defs>
<filter id="filter0_d" x="0" y="0" width="108" height="108" filterUnits="userSpaceOnUse" color-interpolation-filters="sRGB">
<feFlood flood-opacity="0" result="BackgroundImageFix"/>
<feColorMatrix in="SourceAlpha" type="matrix" values="0 0 0 0 0 0 0 0 0 0 0 0 0 0 0 0 0 0 127 0" result="hardAlpha"/>
<feOffset dx="5" dy="5"/>
<feGaussianBlur stdDeviation="10"/>
<feComposite in2="hardAlpha" operator="out"/>
<feColorMatrix type="matrix" values="0 0 0 0 0 0 0 0 0 0 0 0 0 0 0 0 0 0 0.1 0"/>
<feBlend mode="normal" in2="BackgroundImageFix" result="effect1_dropShadow"/>
<feBlend mode="normal" in="SourceGraphic" in2="effect1_dropShadow" result="shape"/>
</filter>
<linearGradient id="paint0_linear" x1="0" y1="0" x2="996.308" y2="5075.26" gradientUnits="userSpaceOnUse">
<stop stop-color="white"/>
<stop offset="1" stop-color="#E6F6FB"/>
</linearGradient>
<clipPath id="clip0">
<rect width="1440" height="6597" fill="white" transform="translate(-720 -3058)"/>
</clipPath>
<clipPath id="clip1">
<rect width="32.5749" height="32.5749" fill="white" transform="translate(33 32.9162)"/>
</clipPath>
</defs>
</svg>
